<?xml version="1.0" encoding="UTF-8"?>
<svg id="Layer_2" data-name="Layer 2" xmlns="http://www.w3.org/2000/svg" viewBox="0 0 212.58 61.57">
  <defs>
    <style>
      .cls-1 {
        fill: #2196f0;
      }

      .cls-2 {
        fill: #f0f1f7;
      }
    </style>
  </defs>
  <g id="Layer_1-2" data-name="Layer 1">
    <g>
      <path class="cls-1" d="M134.77,42.47c1.21-2.94,1.97-6.1,2.22-9.4,0-.04.01-.07.01-.11,0,0,0,0,0-.01.05-.71.08-1.43.08-2.16,0-16.98-13.81-30.79-30.79-30.79-7.23,0-13.88,2.51-19.14,6.7-.1.06-.19.13-.27.21-6.94,5.65-11.38,14.25-11.38,23.88,0,3.79.69,7.42,1.95,10.77.02.07.05.15.08.21.8,2.09,1.82,4.07,3.04,5.91.04.1.1.18.17.26,5.53,8.21,14.92,13.63,25.55,13.63,8.43,0,16.08-3.41,21.65-8.92.11-.08.2-.17.28-.28,2.73-2.77,4.93-6.05,6.46-9.68.04-.07.06-.14.09-.22ZM132.21,18.83h-7.85c-.26,0-.47-.21-.47-.47v-10.03c3.54,2.78,6.41,6.37,8.32,10.5ZM79.73,20.34v19.33c0,.24-.18.43-.41.46-1.02-2.93-1.58-6.07-1.58-9.34,0-3.69.71-7.21,1.99-10.45ZM83.81,48.35h6.11c.26,0,.47.21.47.47v2.14c0,1.49,1.21,2.71,2.71,2.71h7.76c.52,2.53,2.76,4.43,5.43,4.43,3.06,0,5.55-2.49,5.55-5.55s-2.49-5.55-5.55-5.55c-2.68,0-4.92,1.9-5.43,4.43h-7.76c-.26,0-.47-.21-.47-.47v-2.14c0-1.49-1.21-2.71-2.71-2.71h-7.7c-.79-1.24-1.49-2.54-2.08-3.89,1.06-.37,1.83-1.36,1.83-2.55V15.86c1.65-2.68,3.73-5.07,6.15-7.07h23.72c.26,0,.47.21.47.47v2.59c-2.53.52-4.43,2.76-4.43,5.44,0,3.06,2.49,5.55,5.55,5.55s5.55-2.49,5.55-5.55c0-2.68-1.9-4.92-4.43-5.44v-2.59c0-1.49-1.21-2.71-2.71-2.71h-20.61c4.37-2.73,9.53-4.31,15.06-4.31s10.92,1.66,15.36,4.51v11.62c0,1.49,1.21,2.71,2.71,2.71h8.77c1.1,3.03,1.7,6.31,1.7,9.71,0,.35-.01.7-.03,1.06h-3.06c-.11,0-.2-.09-.2-.2v-3.9c0-1.49-1.21-2.71-2.71-2.71h-25.07c-.26,0-.47-.21-.47-.47v-9.15c0-1.49-1.21-2.71-2.71-2.71h-10.19c-1.49,0-2.71,1.21-2.71,2.71v3.53c-2.53.52-4.43,2.76-4.43,5.44,0,3.06,2.49,5.55,5.55,5.55s5.55-2.49,5.55-5.55c0-2.68-1.9-4.92-4.43-5.44v-3.53c0-.26.21-.47.47-.47h10.19c.26,0,.47.21.47.47v9.15c0,1.49,1.21,2.71,2.71,2.71h25.07c.26,0,.47.21.47.47v3.9c0,1.34,1.09,2.43,2.43,2.43h2.89c-.28,2.43-.87,4.77-1.72,6.98l-5.29.02c-.16,0-.27-.07-.33-.13-.05-.05-.14-.16-.14-.34v-7.31c0-1.49-1.22-2.71-2.71-2.71h-14.25c-1.49,0-2.71,1.21-2.71,2.71v9.37c0,.26-.21.48-.47.48h-11.59c-.26,0-.48-.21-.48-.51,0-1.49-1.21-2.71-2.71-2.71h-2.96c-.26,0-.47-.21-.47-.47v-3.28c0-.26.21-.47.47-.47h5.02c.52,2.53,2.76,4.43,5.43,4.43,3.06,0,5.55-2.49,5.55-5.55s-2.49-5.55-5.55-5.55c-2.68,0-4.92,1.9-5.43,4.43h-5.02c-1.49,0-2.71,1.21-2.71,2.71v3.28c0,1.49,1.21,2.71,2.71,2.71h2.96c.26,0,.47.21.47.5,0,1.5,1.22,2.71,2.71,2.71h11.59c1.49,0,2.71-1.22,2.71-2.71v-9.37c0-.26.21-.47.47-.47h14.25c.26,0,.48.21.48.47v7.31c0,.73.28,1.41.8,1.92.51.51,1.18.8,1.92.78l4.3-.02c-1.33,2.71-3.07,5.18-5.15,7.32h-7.95c-.26,0-.47-.21-.47-.47v-4.14c2.53-.52,4.43-2.76,4.43-5.44,0-3.06-2.49-5.55-5.55-5.55s-5.55,2.49-5.55,5.55c0,2.68,1.9,4.92,4.43,5.44v4.14c0,1.49,1.21,2.71,2.71,2.71h5.53c-4.93,4.05-11.23,6.48-18.09,6.48-9.12,0-17.25-4.31-22.48-10.99ZM102.98,52.54c0-1.83,1.49-3.31,3.31-3.31s3.31,1.49,3.31,3.31-1.49,3.31-3.31,3.31-3.31-1.49-3.31-3.31ZM113.43,13.96c1.83,0,3.31,1.49,3.31,3.31s-1.49,3.31-3.31,3.31-3.31-1.49-3.31-3.31,1.49-3.31,3.31-3.31ZM88.82,21.07c1.83,0,3.31,1.49,3.31,3.31s-1.49,3.31-3.31,3.31-3.31-1.49-3.31-3.31,1.49-3.31,3.31-3.31ZM96.44,34.59c0-1.83,1.49-3.31,3.31-3.31s3.31,1.49,3.31,3.31-1.49,3.31-3.31,3.31-3.31-1.49-3.31-3.31ZM117.26,43.89c-1.83,0-3.31-1.49-3.31-3.31s1.49-3.31,3.31-3.31,3.31,1.49,3.31,3.31-1.49,3.31-3.31,3.31Z"/>
      <rect class="cls-2" x="0" y="30.79" width="64.81" height="7.12" rx="3.56" ry="3.56"/>
      <rect class="cls-2" x="147.78" y="30.79" width="64.81" height="7.12" rx="3.56" ry="3.56"/>
    </g>
  </g>
</svg>