<?xml version="1.0" encoding="UTF-8"?>
<svg id="Layer_2" data-name="Layer 2" xmlns="http://www.w3.org/2000/svg" viewBox="0 0 212.58 51.95">
  <defs>
    <style>
      .cls-1 {
        fill: #2196f0;
      }

      .cls-2 {
        fill: #f0f1f7;
      }
    </style>
  </defs>
  <g id="Layer_1-2" data-name="Layer 1">
    <g>
      <path class="cls-1" d="M130.12,20.63c.62,0,1.12-.5,1.12-1.12s-.5-1.12-1.12-1.12h-6.64v-4.22h6.64c.62,0,1.12-.5,1.12-1.12s-.5-1.12-1.12-1.12h-6.64v-3.07c0-.62-.5-1.12-1.12-1.12h-3.07V1.12c0-.62-.5-1.12-1.12-1.12s-1.12.5-1.12,1.12v6.64h-4.22V1.12c0-.62-.5-1.12-1.12-1.12s-1.12.5-1.12,1.12v6.64h-4.22V1.12c0-.62-.5-1.12-1.12-1.12s-1.12.5-1.12,1.12v6.64h-4.22V1.12c0-.62-.5-1.12-1.12-1.12s-1.12.5-1.12,1.12v6.64h-4.22V1.12c0-.62-.5-1.12-1.12-1.12s-1.12.5-1.12,1.12v6.64h-3.07c-.62,0-1.12.5-1.12,1.12v3.07h-6.64c-.62,0-1.12.5-1.12,1.12s.5,1.12,1.12,1.12h6.64v4.22h-6.64c-.62,0-1.12.5-1.12,1.12s.5,1.12,1.12,1.12h6.64v4.22h-6.64c-.62,0-1.12.5-1.12,1.12s.5,1.12,1.12,1.12h6.64v4.22h-6.64c-.62,0-1.12.5-1.12,1.12s.5,1.12,1.12,1.12h6.64v4.22h-6.64c-.62,0-1.12.5-1.12,1.12s.5,1.12,1.12,1.12h6.64v3.07c0,.62.5,1.12,1.12,1.12h3.07v6.64c0,.62.5,1.12,1.12,1.12s1.12-.5,1.12-1.12v-6.64h4.22v6.64c0,.62.5,1.12,1.12,1.12s1.12-.5,1.12-1.12v-6.64h4.22v6.64c0,.62.5,1.12,1.12,1.12s1.12-.5,1.12-1.12v-6.64h4.22v6.64c0,.62.5,1.12,1.12,1.12s1.12-.5,1.12-1.12v-6.64h4.22v6.64c0,.62.5,1.12,1.12,1.12s1.12-.5,1.12-1.12v-6.64h3.07c.62,0,1.12-.5,1.12-1.12v-3.07h6.64c.62,0,1.12-.5,1.12-1.12s-.5-1.12-1.12-1.12h-6.64v-4.22h6.64c.62,0,1.12-.5,1.12-1.12s-.5-1.12-1.12-1.12h-6.64v-4.22h6.64c.62,0,1.12-.5,1.12-1.12s-.5-1.12-1.12-1.12h-6.64v-4.22h6.64ZM121.24,41.96h-31.97V9.99h31.97v31.97Z"/>
      <rect class="cls-2" x="0" y="25.97" width="64.81" height="7.12" rx="3.56" ry="3.56"/>
      <rect class="cls-2" x="147.78" y="25.97" width="64.81" height="7.12" rx="3.56" ry="3.56"/>
    </g>
  </g>
</svg>