<?xml version="1.0" encoding="UTF-8"?>
<svg id="Layer_2" data-name="Layer 2" xmlns="http://www.w3.org/2000/svg" viewBox="0 0 212.58 44.58">
  <defs>
    <style>
      .cls-1 {
        fill: #2196f0;
      }

      .cls-2 {
        fill: #f0f1f7;
      }
    </style>
  </defs>
  <g id="Layer_1-2" data-name="Layer 1">
    <g>
      <path class="cls-1" d="M134.28,36.84h-5.51v-5.83c0-.6-.49-1.09-1.09-1.09h-10.5v-3.61h5.51c1.11,0,2.02-.9,2.02-2.02v-3.7c0-1.11-.9-2.02-2.02-2.02h-5.51v-6.06c0-.6-.49-1.09-1.09-1.09h-10.27v-3.69h5.51c1.11,0,2.02-.9,2.02-2.02v-3.7c0-1.11-.9-2.02-2.02-2.02h-13.21c-1.11,0-2.02.9-2.02,2.02v3.7c0,1.11.9,2.02,2.02,2.02h5.51v3.69h-10.27c-.6,0-1.09.49-1.09,1.09v6.06h-5.51c-1.11,0-2.02.9-2.02,2.02v3.7c0,1.11.9,2.02,2.02,2.02h5.51v3.61h-10.5c-.6,0-1.09.49-1.09,1.09v5.83h-5.45c-1.11,0-2.02.9-2.02,2.02v3.7c0,1.11.9,2.02,2.02,2.02h13.21c1.11,0,2.02-.9,2.02-2.02v-3.7c0-1.11-.9-2.02-2.02-2.02h-5.57v-4.73h20.23v4.73h-5.51c-1.11,0-2.02.9-2.02,2.02v3.7c0,1.11.9,2.02,2.02,2.02h13.21c1.11,0,2.02-.9,2.02-2.02v-3.7c0-1.11-.9-2.02-2.02-2.02h-5.51v-4.73h21.3v4.73h-5.51c-1.11,0-2.02.9-2.02,2.02v3.7c0,1.11.9,2.02,2.02,2.02h13.21c1.11,0,2.02-.9,2.02-2.02v-3.7c0-1.11-.9-2.02-2.02-2.02ZM98.29,2.19h12.87v3.36h-12.87v-3.36ZM88.27,42.39h-12.87v-3.36h12.87v3.36ZM110.62,42.39h-12.87v-3.36h12.87v3.36ZM122.52,24.13h-12.87v-3.36h12.87v3.36ZM86.93,20.76h12.87v3.36h-12.87v-3.36ZM94.46,26.31h5.51c1.11,0,2.02-.9,2.02-2.02v-3.7c0-1.11-.9-2.02-2.02-2.02h-5.51v-4.96h20.54v4.96h-5.51c-1.11,0-2.02.9-2.02,2.02v3.7c0,1.11.9,2.02,2.02,2.02h5.51v3.61h-20.54v-3.61ZM134.11,42.39h-12.87v-3.36h12.87v3.36Z"/>
      <rect class="cls-2" x="0" y="22.29" width="64.81" height="7.12" rx="3.56" ry="3.56"/>
      <rect class="cls-2" x="147.78" y="22.29" width="64.81" height="7.12" rx="3.56" ry="3.56"/>
    </g>
  </g>
</svg>