<?xml version="1.0" encoding="UTF-8"?>
<svg id="Layer_2" data-name="Layer 2" xmlns="http://www.w3.org/2000/svg" viewBox="0 0 212.58 57.1">
  <defs>
    <style>
      .cls-1 {
        fill: #2196f0;
      }

      .cls-2 {
        fill: #f0f1f7;
      }
    </style>
  </defs>
  <g id="Layer_1-2" data-name="Layer 1">
    <g>
      <g>
        <g>
          <path class="cls-1" d="M106.16,16.25c-3.1,0-5.88-1.72-7.26-4.48-.57-1.14-.86-2.37-.86-3.65,0-4.48,3.64-8.12,8.12-8.12s8.13,3.64,8.13,8.12c0,1.28-.29,2.51-.86,3.65-1.39,2.76-4.18,4.48-7.27,4.48ZM106.16,2.27c-3.23,0-5.86,2.63-5.86,5.85,0,.92.21,1.81.62,2.64.99,1.99,3,3.23,5.23,3.23s4.24-1.24,5.24-3.23c.41-.82.62-1.71.62-2.64,0-3.23-2.63-5.85-5.86-5.85Z"/>
          <path class="cls-1" d="M106.16,24.83h0c-.3,0-.59-.12-.81-.34l-5.43-5.52c-.44-.45-.43-1.16.01-1.6.45-.44,1.16-.43,1.6.01l4.62,4.7,4.63-4.7c.44-.45,1.16-.45,1.6-.01.45.44.45,1.16.01,1.6l-5.44,5.52c-.21.22-.5.34-.81.34Z"/>
          <path class="cls-1" d="M91.47,32.45s-.1,0-.15,0c-.62-.08-1.06-.65-.98-1.27.78-6.04,3.25-10.14,7.76-12.88.76-.46,1.47-.83,2.16-1.14.57-.25,1.24,0,1.5.57.25.57,0,1.24-.57,1.5-.61.27-1.24.6-1.91,1.01-2.64,1.6-5.79,4.33-6.68,11.23-.07.57-.56.99-1.12.99Z"/>
          <path class="cls-1" d="M121.15,36.89c-.63,0-1.13-.51-1.13-1.13,0-10.03-3.71-13.57-6.93-15.53-.64-.39-1.29-.73-1.94-1.01-.57-.25-.83-.92-.58-1.49.25-.57.92-.83,1.49-.58.73.32,1.47.71,2.2,1.15,5.55,3.37,8.02,8.76,8.02,17.46,0,.63-.51,1.13-1.13,1.13Z"/>
        </g>
        <path class="cls-1" d="M138.17,39.44c0-.08-.04-.15-.05-.23-.01-.1-.03-.21-.07-.3-.19-.59-.55-1.08-1.09-1.44-2.05-1.38-6.13-.6-9.94.41-1.64-.74-5.25-.02-10.74,2.13-.35,0-.68,0-.98.02-6.56.4-9.98.37-10.58.36-.5-.11-.9-.24-1.19-.37-.65-.31-1.63-.91-2.77-1.6-3.18-1.95-7.53-4.61-11.14-4.86-6.25-.13-15.72,4.57-16.12,4.77-.56.28-.78.96-.5,1.52.28.56.96.79,1.52.5.09-.05,9.35-4.67,15-4.53,3.01.2,7.09,2.7,10.07,4.53,1.19.73,2.22,1.36,2.99,1.72.47.22,1.05.4,1.76.56,0,0,0,0,.01,0,0,0,0,0,.01,0,.02,0,.05,0,.07,0,.05,0,.09.02.14.02.14,0,3.54.09,10.89-.36,1.59-.1,2.55.15,3.1.81.34.4.29.63.27.73-.26,1.34-3.78,3.21-5.11,3.91-2.76,1.46-10.49,1.65-16.32-1.37-.56-.29-1.24-.07-1.53.48-.29.56-.07,1.24.48,1.53,3.56,1.85,7.85,2.67,11.57,2.67,2.8,0,5.27-.47,6.86-1.31,3.58-1.9,5.88-3.47,6.27-5.48.12-.64.09-1.61-.76-2.62-.15-.18-.32-.34-.49-.49,2.92-.96,5.48-1.52,6.19-1.29.28.31.72.45,1.14.33l.1-.03c5.73-1.55,7.78-1.3,8.49-.82.03.02.05.05.07.07-.34.71-1.47,2.11-5.12,4.38-2.15,1.34-7.72,4.28-10.4,5.7l-.96.51c-.49.26-1.01.56-1.56.87-2.93,1.67-6.94,3.97-12.63,3.97h-.04c-.53-.03-3.61-.86-6.33-1.6-6.66-1.79-11.89-3.16-13.59-3.07-2.78.15-9.71,1.62-10.01,1.69-.61.13-1,.73-.87,1.34.13.61.73,1,1.34.87.07-.01,7.06-1.5,9.66-1.64,1.49-.09,8.34,1.77,12.88,2.99,4.5,1.21,6.26,1.67,6.9,1.67h.05c6.31,0,10.62-2.46,13.77-4.26.53-.3,1.03-.59,1.5-.84l.96-.51c2.91-1.54,8.32-4.4,10.53-5.78,3.25-2.02,5.17-3.72,5.94-5.28.28-.24.44-.61.39-1Z"/>
      </g>
      <rect class="cls-2" x="0" y="34.19" width="64.81" height="7.12" rx="3.56" ry="3.56"/>
      <rect class="cls-2" x="147.78" y="34.19" width="64.81" height="7.12" rx="3.56" ry="3.56"/>
    </g>
  </g>
</svg>