<?xml version="1.0" encoding="UTF-8"?>
<svg id="Layer_2" data-name="Layer 2" xmlns="http://www.w3.org/2000/svg" viewBox="0 0 212.58 49.12">
  <defs>
    <style>
      .cls-1 {
        fill: #2196f0;
      }

      .cls-2 {
        fill: #f0f1f7;
      }
    </style>
  </defs>
  <g id="Layer_1-2" data-name="Layer 1">
    <g>
      <g>
        <path class="cls-1" d="M111.25,27.39c0-2.46-2-4.45-4.45-4.45h-1.23v-4.6h2.1c.63,0,1.14-.51,1.14-1.14s-.51-1.14-1.14-1.14h-2.1v-2.42c0-.63-.51-1.14-1.14-1.14s-1.14.51-1.14,1.14v2.42h-.47c-2.46,0-4.45,2-4.45,4.45v.24c0,2.46,2,4.45,4.45,4.45h.47v4.43h-3.17c-.63,0-1.14.51-1.14,1.14s.51,1.14,1.14,1.14h3.17v2.7c0,.63.51,1.14,1.14,1.14s1.14-.51,1.14-1.14v-2.7h1.23c2.46,0,4.45-2,4.45-4.52ZM102.82,22.94c-1.2,0-2.18-.98-2.18-2.18v-.24c0-1.2.98-2.18,2.18-2.18h.47v4.6h-.47ZM105.56,25.21h1.23c1.2,0,2.18.98,2.18,2.25,0,1.2-.98,2.18-2.18,2.18h-1.23v-4.43Z"/>
        <path class="cls-1" d="M125.59,18.8c-2.64,0-4.84,1.94-5.25,4.46l-6.66.35c-.63.03-1.11.57-1.08,1.19.03.61.53,1.08,1.13,1.08.02,0,.04,0,.06,0l6.65-.35c.62,2.26,2.68,3.93,5.14,3.93,2.94,0,5.33-2.39,5.33-5.33s-2.39-5.33-5.33-5.33ZM125.59,27.19c-1.69,0-3.06-1.37-3.06-3.06s1.37-3.06,3.06-3.06,3.06,1.37,3.06,3.06-1.37,3.06-3.06,3.06Z"/>
        <path class="cls-1" d="M113.74,38.46c-.48,0-.94.07-1.38.19l-2.35-4.55c-.29-.56-.97-.78-1.53-.49-.56.29-.78.97-.49,1.53l2.35,4.55c-1.18.98-1.93,2.45-1.93,4.1,0,2.94,2.39,5.33,5.33,5.33s5.33-2.39,5.33-5.33-2.39-5.33-5.33-5.33ZM113.74,46.84c-1.69,0-3.06-1.37-3.06-3.06s1.37-3.06,3.06-3.06,3.06,1.37,3.06,3.06-1.37,3.06-3.06,3.06Z"/>
        <path class="cls-1" d="M90.42,14.63l5.23,3.92c.2.15.44.23.68.23.35,0,.69-.16.91-.46.38-.5.27-1.21-.23-1.59l-5.23-3.91c.31-.67.48-1.42.48-2.21,0-2.94-2.39-5.33-5.33-5.33s-5.33,2.39-5.33,5.33,2.39,5.33,5.33,5.33c1.33,0,2.55-.49,3.48-1.3ZM83.88,10.61c0-1.69,1.37-3.06,3.06-3.06s3.06,1.37,3.06,3.06-1.37,3.06-3.06,3.06-3.06-1.37-3.06-3.06Z"/>
        <path class="cls-1" d="M110.11,15.26c.28,0,.57-.11.79-.32l5.35-5.17c.85.57,1.86.9,2.95.9,2.94,0,5.33-2.39,5.33-5.33s-2.39-5.33-5.33-5.33-5.33,2.39-5.33,5.33c0,1.03.3,1.98.8,2.8l-5.36,5.18c-.45.44-.46,1.16-.03,1.61.22.23.52.35.82.35ZM119.2,2.27c1.69,0,3.06,1.37,3.06,3.06s-1.37,3.06-3.06,3.06-3.06-1.37-3.06-3.06,1.37-3.06,3.06-3.06Z"/>
        <path class="cls-1" d="M96.53,33.04l-3.75,3.67c-.84-.56-1.85-.88-2.93-.88-2.94,0-5.33,2.39-5.33,5.33s2.39,5.33,5.33,5.33,5.33-2.39,5.33-5.33c0-1.04-.3-2-.82-2.82l3.75-3.67c.45-.44.46-1.16.02-1.61-.44-.45-1.16-.46-1.61-.02ZM89.85,44.21c-1.69,0-3.06-1.37-3.06-3.06s1.37-3.06,3.06-3.06,3.06,1.37,3.06,3.06-1.37,3.06-3.06,3.06Z"/>
      </g>
      <rect class="cls-2" x="0" y="30.2" width="64.81" height="7.12" rx="3.56" ry="3.56"/>
      <rect class="cls-2" x="147.78" y="30.2" width="64.81" height="7.12" rx="3.56" ry="3.56"/>
    </g>
  </g>
</svg>