<?xml version="1.0" encoding="UTF-8"?>
<svg id="Layer_2" data-name="Layer 2" xmlns="http://www.w3.org/2000/svg" viewBox="0 0 60.57 45.96">
  <defs>
    <style>
      .cls-1 {
        fill: #084bbe;
      }
    </style>
  </defs>
  <g id="Layer_1-2" data-name="Layer 1">
    <g>
      <path class="cls-1" d="M30.28,17.66c-2.93,0-5.32,2.39-5.32,5.32s2.38,5.32,5.32,5.32,5.32-2.38,5.32-5.32-2.38-5.32-5.32-5.32ZM30.28,25.88c-1.6,0-2.89-1.3-2.89-2.89s1.3-2.89,2.89-2.89,2.89,1.3,2.89,2.89-1.3,2.89-2.89,2.89Z"/>
      <path class="cls-1" d="M36.73,11.26c-.63-.23-1.32.1-1.55.73-.23.63.1,1.32.73,1.55.05.02,5.08,1.91,5.08,9.45s-4.86,9.36-5.09,9.45c-.63.23-.95.92-.72,1.55.18.49.64.8,1.14.8.14,0,.27-.02.41-.07.27-.1,6.68-2.51,6.68-11.73s-6.41-11.63-6.68-11.73Z"/>
      <path class="cls-1" d="M45.04,5.66c-.48-.47-1.24-.46-1.71.02-.47.48-.46,1.24.02,1.71,2.61,2.56,5.73,7.35,5.73,15.59s-3.11,13.02-5.72,15.6c-.48.47-.48,1.24-.01,1.71.24.24.55.36.86.36s.61-.12.85-.35c2.94-2.9,6.44-8.26,6.44-17.32s-3.51-14.43-6.46-17.32Z"/>
      <path class="cls-1" d="M52.16.35c-.48-.47-1.24-.46-1.71.01-.47.48-.46,1.24.01,1.71,3.5,3.45,7.68,9.88,7.68,20.91s-4.17,17.44-7.67,20.9c-.48.47-.48,1.24-.01,1.71.24.24.55.36.86.36s.62-.12.85-.35c3.83-3.78,8.39-10.78,8.39-22.63S56,4.13,52.16.35Z"/>
      <path class="cls-1" d="M24.65,32.43c-.05-.02-5.08-1.91-5.08-9.45s4.86-9.36,5.09-9.45c.63-.23.95-.92.72-1.55-.23-.63-.92-.96-1.55-.73-.27.1-6.68,2.51-6.68,11.73s6.41,11.63,6.68,11.73c.14.05.27.07.41.07.5,0,.96-.31,1.14-.8.23-.63-.1-1.32-.73-1.55Z"/>
      <path class="cls-1" d="M11.49,22.98c0-8.24,3.12-13.03,5.73-15.59.48-.47.48-1.23.02-1.71-.47-.48-1.24-.48-1.71-.02-2.95,2.89-6.46,8.24-6.46,17.32s3.5,14.42,6.44,17.32c.24.23.54.35.85.35s.62-.12.86-.36c.47-.48.46-1.24-.01-1.71-2.61-2.58-5.72-7.37-5.72-15.6Z"/>
      <path class="cls-1" d="M2.42,22.98C2.42,11.96,6.6,5.53,10.1,2.07c.48-.47.48-1.24.01-1.71-.47-.48-1.24-.48-1.71-.01C4.57,4.13,0,11.12,0,22.98s4.56,18.84,8.39,22.63c.24.23.54.35.85.35s.62-.12.86-.36c.47-.48.47-1.24-.01-1.71-3.5-3.46-7.67-9.89-7.67-20.9Z"/>
    </g>
  </g>
</svg>