<?xml version="1.0" encoding="UTF-8"?>
<svg id="Layer_2" data-name="Layer 2" xmlns="http://www.w3.org/2000/svg" viewBox="0 0 59.33 59.33">
  <defs>
    <style>
      .cls-1 {
        fill: #084bbe;
      }
    </style>
  </defs>
  <g id="Layer_1-2" data-name="Layer 1">
    <g>
      <path class="cls-1" d="M23.28,36.59c.63.12,1.23-.3,1.35-.93.46-2.48,1.49-3.42,2.52-4.06,1.66-1.03,3.72-1.09,5.36-.16,1.15.65,2.39,1.66,2.85,4.22.1.56.59.96,1.14.96.07,0,.14,0,.21-.02.63-.11,1.05-.71.94-1.34-.64-3.57-2.58-5.04-3.99-5.83-.33-.19-.68-.34-1.03-.47.49-.38.9-.87,1.19-1.45.3-.61.46-1.26.46-1.93,0-2.37-1.93-4.3-4.31-4.3s-4.3,1.93-4.3,4.3c0,.68.15,1.33.46,1.93.29.59.71,1.08,1.21,1.47-.48.18-.94.39-1.39.66-1.98,1.23-3.09,2.96-3.58,5.61-.12.63.3,1.23.93,1.35ZM29.96,23.57c1.1,0,1.99.89,1.99,1.99,0,.31-.07.62-.21.89-.34.68-1.02,1.1-1.78,1.1s-1.44-.42-1.77-1.09c-.14-.28-.21-.58-.21-.9,0-1.09.89-1.99,1.99-1.99Z"/>
      <path class="cls-1" d="M53.34,23.67c-2.91,0-5.34,2.08-5.88,4.83h-2.71c-.26-3.28-1.58-6.25-3.63-8.59l1.95-2.01c.98.65,2.12,1.01,3.33,1.01,1.6,0,3.11-.62,4.24-1.76,2.34-2.34,2.34-6.14,0-8.47-1.13-1.13-2.64-1.76-4.24-1.76s-3.11.62-4.24,1.76c-2.06,2.06-2.3,5.26-.73,7.58l-1.97,2.02c-2.29-1.91-5.16-3.13-8.31-3.38v-3.13c2.58-.67,4.5-3.01,4.5-5.8,0-3.3-2.69-5.99-5.99-5.99s-5.99,2.69-5.99,5.99c0,3.02,2.25,5.53,5.17,5.93v2.99c-3.28.26-6.25,1.58-8.58,3.63l-2.35-2.29c1.55-2.33,1.31-5.51-.75-7.56-1.13-1.13-2.64-1.76-4.24-1.76s-3.11.62-4.24,1.76c-2.34,2.34-2.34,6.14,0,8.47,1.13,1.13,2.64,1.76,4.24,1.76,1.21,0,2.37-.36,3.35-1.02l2.36,2.3c-1.91,2.29-3.13,5.16-3.38,8.31h-3.38c-.54-2.75-2.97-4.83-5.88-4.83-3.3,0-5.99,2.69-5.99,5.99s2.69,5.99,5.99,5.99c2.91,0,5.34-2.08,5.88-4.83h3.38c.25,3.15,1.47,6.02,3.38,8.31l-2.36,2.3c-.98-.66-2.14-1.02-3.35-1.02-1.6,0-3.11.62-4.24,1.76-1.13,1.13-1.76,2.64-1.76,4.24s.62,3.11,1.76,4.24c1.13,1.13,2.64,1.76,4.24,1.76s3.11-.62,4.24-1.76c1.13-1.13,1.76-2.64,1.76-4.24,0-1.2-.35-2.35-1.01-3.33l2.35-2.29c2.33,2.05,5.31,3.37,8.58,3.63v2.99c-2.91.4-5.17,2.91-5.17,5.93,0,3.3,2.69,5.99,5.99,5.99s5.99-2.69,5.99-5.99c0-2.79-1.92-5.13-4.5-5.8v-3.13c3.15-.25,6.02-1.47,8.31-3.38l1.96,2.02c-.66.98-1.02,2.14-1.02,3.35,0,1.6.62,3.11,1.76,4.24,1.13,1.13,2.64,1.76,4.24,1.76s3.11-.62,4.24-1.76c1.13-1.13,1.76-2.64,1.76-4.24s-.62-3.11-1.76-4.24c-1.13-1.13-2.64-1.76-4.24-1.76-1.2,0-2.35.35-3.33,1.01l-1.95-2.01c2.05-2.33,3.37-5.31,3.63-8.59h2.71c.54,2.75,2.97,4.83,5.88,4.83,3.3,0,5.99-2.69,5.99-5.99s-2.69-5.99-5.99-5.99ZM43.8,10.33c.69-.69,1.62-1.08,2.6-1.08s1.9.38,2.6,1.08c1.43,1.43,1.43,3.76,0,5.2-.69.69-1.62,1.08-2.6,1.08s-1.9-.38-2.6-1.08c-1.43-1.43-1.43-3.76,0-5.2ZM25.99,5.99c0-2.03,1.65-3.67,3.67-3.67s3.67,1.65,3.67,3.67-1.65,3.67-3.67,3.67-3.67-1.65-3.67-3.67ZM10.33,15.52c-1.43-1.43-1.43-3.76,0-5.2.69-.69,1.62-1.08,2.6-1.08s1.9.38,2.6,1.08c1.43,1.43,1.43,3.76,0,5.2-.69.69-1.62,1.08-2.6,1.08s-1.9-.38-2.6-1.08ZM5.99,33.34c-2.03,0-3.67-1.65-3.67-3.67s1.65-3.67,3.67-3.67,3.67,1.65,3.67,3.67-1.65,3.67-3.67,3.67ZM30,17.17c6.88,0,12.48,5.6,12.49,12.48,0,0,0,0,0,0s0,0,0,0c0,6.88-5.61,12.48-12.49,12.48s-12.49-5.6-12.49-12.49,5.6-12.49,12.49-12.49ZM15.52,49c-.69.69-1.62,1.08-2.6,1.08s-1.9-.38-2.6-1.08c-.69-.69-1.08-1.62-1.08-2.6s.38-1.9,1.08-2.6c.69-.69,1.62-1.08,2.6-1.08s1.9.38,2.6,1.08c.69.69,1.08,1.62,1.08,2.6s-.38,1.9-1.08,2.6ZM33.34,53.34c0,2.03-1.65,3.67-3.67,3.67s-3.67-1.65-3.67-3.67,1.65-3.67,3.67-3.67,3.67,1.65,3.67,3.67ZM49,43.8c.69.69,1.08,1.62,1.08,2.6s-.38,1.9-1.08,2.6c-.69.69-1.62,1.08-2.6,1.08s-1.9-.38-2.6-1.08c-.69-.69-1.08-1.62-1.08-2.6s.38-1.9,1.08-2.6c.69-.69,1.62-1.08,2.6-1.08s1.9.38,2.6,1.08ZM53.34,33.34c-2.03,0-3.67-1.65-3.67-3.67s1.65-3.67,3.67-3.67,3.67,1.65,3.67,3.67-1.65,3.67-3.67,3.67Z"/>
    </g>
  </g>
</svg>