<?xml version="1.0" encoding="UTF-8"?>
<svg id="Layer_2" data-name="Layer 2" xmlns="http://www.w3.org/2000/svg" viewBox="0 0 54.31 64.43">
  <defs>
    <style>
      .cls-1 {
        fill: #084bbe;
      }
    </style>
  </defs>
  <g id="Layer_1-2" data-name="Layer 1">
    <g>
      <path class="cls-1" d="M27.16,52.08h0c-3.13,0-5.07-1.8-5.15-1.88-.31-.3-.46-.73-.38-1.15l.91-5.26c-1.36-1.14-2.6-3.16-2.6-5.54,0-3.99,3.24-7.23,7.23-7.23s7.22,3.24,7.22,7.23c0,2.38-1.24,4.4-2.6,5.54l.91,5.26c.07.43-.07.86-.39,1.16-.08.08-2.02,1.87-5.15,1.87ZM24.29,48.71c.56.34,1.55.8,2.86.8h0c1.3,0,2.3-.46,2.86-.8l-.91-5.27c-.09-.53.15-1.05.61-1.33.84-.5,2.08-1.94,2.08-3.86,0-2.57-2.08-4.65-4.64-4.65s-4.65,2.09-4.65,4.65c0,1.92,1.28,3.39,2.08,3.86.46.27.71.8.61,1.33l-.91,5.27Z"/>
      <path class="cls-1" d="M49.97,20.14h-4.9c-.08-8.49-6.3-20.14-17.91-20.14C16.15,0,9.31,10.42,9.24,20.14h-4.9c-2.39,0-4.34,1.95-4.34,4.34v13.06c0,14.83,12.07,26.9,26.9,26.9h.52c14.83,0,26.9-12.07,26.9-26.9v-13.06c0-2.39-1.95-4.34-4.34-4.34ZM27.16,2.58c9.93,0,15.26,10.15,15.34,17.56H11.81c.07-7.14,4.96-17.56,15.34-17.56ZM51.73,37.54c0,13.41-10.91,24.32-24.32,24.32h-.52c-13.41,0-24.32-10.91-24.32-24.32v-13.06c0-.97.79-1.76,1.76-1.76h45.63c.97,0,1.76.79,1.76,1.76v13.06Z"/>
    </g>
  </g>
</svg>