<?xml version="1.0" encoding="UTF-8"?>
<svg id="Layer_2" data-name="Layer 2" xmlns="http://www.w3.org/2000/svg" viewBox="0 0 64.56 59.48">
  <defs>
    <style>
      .cls-1 {
        fill: #084bbe;
      }
    </style>
  </defs>
  <g id="Layer_1-2" data-name="Layer 1">
    <g>
      <path class="cls-1" d="M13.44,24.88c6.86,0,12.44-5.58,12.44-12.44S20.3,0,13.44,0,1,5.58,1,12.44s5.58,12.44,12.44,12.44ZM13.44,2.42c5.52,0,10.02,4.49,10.02,10.02s-4.49,10.02-10.02,10.02S3.42,17.96,3.42,12.44,7.91,2.42,13.44,2.42Z"/>
      <path class="cls-1" d="M51.15,41.66c-4.68,0-8.49,3.81-8.49,8.49s3.81,8.49,8.49,8.49,8.49-3.81,8.49-8.49-3.81-8.49-8.49-8.49ZM51.15,56.23c-3.35,0-6.07-2.72-6.07-6.07s2.72-6.07,6.07-6.07,6.07,2.72,6.07,6.07-2.72,6.07-6.07,6.07Z"/>
      <path class="cls-1" d="M35.65,56.78c-1.24.18-2.5.28-3.76.28-13.37,0-24.34-10.41-25.26-23.54l2.28,1.94c.51.43,1.27.37,1.71-.13.43-.51.37-1.27-.13-1.71l-4.34-3.71c-.49-.42-1.21-.38-1.66.08L.34,34.26c-.46.48-.45,1.25.03,1.71.23.23.54.34.84.34s.63-.12.87-.37l2.13-2.21c1.04,14.37,13.05,25.74,27.67,25.74,1.38,0,2.76-.1,4.11-.3.66-.1,1.12-.71,1.02-1.38-.1-.66-.72-1.12-1.38-1.02Z"/>
      <path class="cls-1" d="M64.4,32.17c-.34-.58-1.08-.77-1.66-.44l-3.16,1.84c.04-.62.07-1.24.07-1.85,0-15.3-12.45-27.76-27.76-27.76-.67,0-1.21.54-1.21,1.21s.54,1.21,1.21,1.21c13.97,0,25.33,11.36,25.33,25.33,0,.61-.03,1.21-.07,1.82l-3.1-3.04c-.48-.47-1.24-.46-1.71.02-.47.48-.46,1.24.02,1.71l4.68,4.59c.23.23.54.35.85.35.21,0,.42-.05.61-.16l5.46-3.18c.58-.34.77-1.08.44-1.66Z"/>
    </g>
  </g>
</svg>