<?xml version="1.0" encoding="UTF-8"?>
<svg id="Layer_2" data-name="Layer 2" xmlns="http://www.w3.org/2000/svg" viewBox="0 0 212.58 56.27">
  <defs>
    <style>
      .cls-1 {
        fill: #2196f0;
      }

      .cls-2 {
        fill: #f0f1f7;
      }
    </style>
  </defs>
  <g id="Layer_1-2" data-name="Layer 1">
    <g>
      <g>
        <path class="cls-1" d="M106.66,56.27c-15.51,0-28.14-12.62-28.14-28.14S91.14,0,106.66,0s28.14,12.62,28.14,28.14-12.62,28.14-28.14,28.14ZM106.66,2.32c-14.24,0-25.82,11.58-25.82,25.82s11.58,25.82,25.82,25.82,25.82-11.58,25.82-25.82S120.89,2.32,106.66,2.32Z"/>
        <path class="cls-1" d="M106.49,10.89c-.64,0-1.16-.52-1.16-1.16v-4.5c0-.64.52-1.16,1.16-1.16s1.16.52,1.16,1.16v4.5c0,.64-.52,1.16-1.16,1.16Z"/>
        <path class="cls-1" d="M129.71,29.46h-4.76c-.64,0-1.16-.52-1.16-1.16s.52-1.16,1.16-1.16h4.76c.64,0,1.16.52,1.16,1.16s-.52,1.16-1.16,1.16Z"/>
        <path class="cls-1" d="M88.03,29.46h-4.76c-.64,0-1.16-.52-1.16-1.16s.52-1.16,1.16-1.16h4.76c.64,0,1.16.52,1.16,1.16s-.52,1.16-1.16,1.16Z"/>
        <path class="cls-1" d="M106.49,10.89c-.64,0-1.16-.52-1.16-1.16v-4.5c0-.64.52-1.16,1.16-1.16s1.16.52,1.16,1.16v4.5c0,.64-.52,1.16-1.16,1.16Z"/>
        <path class="cls-1" d="M99.46,12.45c-.42,0-.83-.23-1.03-.63l-2.11-4.11c-.29-.57-.07-1.27.5-1.56.57-.29,1.27-.07,1.56.5l2.11,4.11c.29.57.07,1.27-.5,1.56-.17.09-.35.13-.53.13Z"/>
        <path class="cls-1" d="M113.67,12.45c-.18,0-.36-.04-.53-.13-.57-.29-.79-.99-.5-1.56l2.11-4.11c.29-.57.99-.79,1.56-.5.57.29.79.99.5,1.56l-2.11,4.11c-.21.4-.61.63-1.03.63Z"/>
        <path class="cls-1" d="M123.22,22.35c-.47,0-.91-.29-1.09-.75-.22-.6.08-1.27.68-1.49l4.53-1.68c.6-.22,1.27.08,1.49.68.22.6-.08,1.27-.68,1.49l-4.53,1.68c-.13.05-.27.07-.4.07Z"/>
        <path class="cls-1" d="M89.75,22.35c-.13,0-.27-.02-.4-.07l-4.53-1.68c-.6-.22-.9-.89-.68-1.49.22-.6.89-.9,1.49-.68l4.53,1.68c.6.22.9.89.68,1.49-.17.47-.62.75-1.09.75Z"/>
        <path class="cls-1" d="M88.03,29.46h-4.76c-.64,0-1.16-.52-1.16-1.16s.52-1.16,1.16-1.16h4.76c.64,0,1.16.52,1.16,1.16s-.52,1.16-1.16,1.16Z"/>
        <path class="cls-1" d="M93.44,16.41c-.3,0-.59-.11-.82-.34l-3.36-3.37c-.45-.45-.45-1.18,0-1.64.45-.45,1.18-.45,1.64,0l3.37,3.37c.45.45.45,1.18,0,1.64-.23.23-.52.34-.82.34Z"/>
        <path class="cls-1" d="M119.54,16.41c-.3,0-.59-.11-.82-.34-.45-.45-.45-1.18,0-1.64l3.37-3.37c.45-.45,1.18-.45,1.64,0,.45.45.45,1.18,0,1.64l-3.37,3.37c-.23.23-.52.34-.82.34Z"/>
        <path class="cls-1" d="M122,40.58c-.16-.3-3.59-6.52-11.89-8.12.72-1.93,2.12-5.66,2.58-6.89l.13-.34c.63-1.69,1.41-3.8-.35-4.92-.04-.02-.08-.05-.12-.07-1.71-.82-3.34.89-4.29,2.78l-4.38,9.19c-8.78,1.02-12.65,7.37-12.83,7.67-.33.55-.15,1.26.4,1.59.18.11.39.16.59.16.4,0,.78-.2,1-.57.04-.06,3.55-5.81,11.47-6.58.04,0,.07.01.11.01.13,0,.25-.03.37-.07.57-.04,1.16-.06,1.78-.04,9.47.21,13.26,6.99,13.41,7.27.21.39.61.61,1.02.61.18,0,.37-.04.55-.14.56-.3.78-1,.47-1.57ZM110.12,24.04c.3-.59.77-1.22,1.1-1.52-.06.48-.38,1.33-.58,1.89l-.13.35c-.5,1.35-2.12,5.69-2.76,7.38-.38-.03-.76-.05-1.15-.06-.1,0-.2,0-.31,0l3.83-8.04Z"/>
      </g>
      <rect class="cls-2" x="0" y="33.78" width="64.81" height="7.12" rx="3.56" ry="3.56"/>
      <rect class="cls-2" x="147.78" y="33.78" width="64.81" height="7.12" rx="3.56" ry="3.56"/>
    </g>
  </g>
</svg>