<?xml version="1.0" encoding="UTF-8"?>
<svg id="Layer_2" data-name="Layer 2" xmlns="http://www.w3.org/2000/svg" viewBox="0 0 212.58 60.11">
  <defs>
    <style>
      .cls-1 {
        fill: #2196f0;
      }

      .cls-2 {
        fill: #f0f1f7;
      }
    </style>
  </defs>
  <g id="Layer_1-2" data-name="Layer 1">
    <g>
      <g>
        <path class="cls-1" d="M105.1,53.51c-12.93,0-23.45-10.52-23.45-23.45s10.52-23.45,23.45-23.45,23.45,10.52,23.45,23.45-10.52,23.45-23.45,23.45ZM105.1,8.98c-11.62,0-21.08,9.46-21.08,21.08s9.46,21.08,21.08,21.08,21.08-9.46,21.08-21.08-9.45-21.08-21.08-21.08Z"/>
        <g>
          <path class="cls-1" d="M105.1,60.11c-16.57,0-30.06-13.48-30.06-30.06S88.53,0,105.1,0s30.06,13.48,30.06,30.06-13.48,30.06-30.06,30.06ZM105.1,2.37c-15.26,0-27.68,12.42-27.68,27.68s12.42,27.68,27.68,27.68,27.68-12.42,27.68-27.68S120.37,2.37,105.1,2.37Z"/>
          <path class="cls-1" d="M120.62,25.68c-.49,0-.94-.3-1.12-.79-2.17-6.06-7.96-10.12-14.4-10.12-.66,0-1.19-.53-1.19-1.19s.53-1.19,1.19-1.19c7.44,0,14.12,4.7,16.63,11.69.22.62-.1,1.3-.72,1.52-.13.05-.27.07-.4.07Z"/>
          <path class="cls-1" d="M105.11,47.72c-7.65,0-14.4-4.88-16.78-12.15-.2-.62.13-1.29.76-1.5.63-.2,1.29.13,1.5.76,2.07,6.29,7.91,10.51,14.53,10.51.66,0,1.19.53,1.19,1.19s-.53,1.19-1.19,1.19Z"/>
        </g>
      </g>
      <rect class="cls-2" x="0" y="30.06" width="64.81" height="7.12" rx="3.56" ry="3.56"/>
      <rect class="cls-2" x="147.78" y="30.06" width="64.81" height="7.12" rx="3.56" ry="3.56"/>
    </g>
  </g>
</svg>