<?xml version="1.0" encoding="UTF-8"?>
<svg id="Layer_2" data-name="Layer 2" xmlns="http://www.w3.org/2000/svg" viewBox="0 0 165.22 51.51">
  <defs>
    <style>
      .cls-1 {
        fill: #fff;
      }
    </style>
  </defs>
  <g id="Layer_1-2" data-name="Layer 1">
    <g>
      <g>
        <polygon class="cls-1" points="0 0 0 2.99 8.56 2.99 8.56 19.75 12.22 19.75 12.22 2.99 20.76 2.99 20.76 0 0 0"/>
        <polygon class="cls-1" points="41.26 0 41.26 8.22 28.65 8.22 28.65 0 24.99 0 24.99 19.75 28.65 19.75 28.65 11.31 41.26 11.31 41.26 19.75 44.91 19.75 44.91 0 41.26 0"/>
        <path class="cls-1" d="M56.69,19.66c-1.23-.32-2.28-.83-3.12-1.53-.85-.7-1.5-1.58-1.94-2.66-.45-1.08-.67-2.37-.67-3.87V0h3.66v11.56c0,.96.14,1.8.41,2.51.28.71.68,1.29,1.21,1.76.53.46,1.19.81,1.97,1.03.78.22,1.67.33,2.68.33s1.89-.11,2.66-.33c.78-.22,1.43-.57,1.97-1.03.53-.46.94-1.05,1.21-1.76.28-.71.41-1.54.41-2.51V0h3.67v11.6c0,1.51-.23,2.8-.68,3.87-.46,1.08-1.11,1.96-1.96,2.66-.85.7-1.89,1.21-3.12,1.53-1.23.32-2.62.49-4.18.49s-2.97-.16-4.2-.49"/>
        <path class="cls-1" d="M76.85,0h10.62c1.27,0,2.41.12,3.44.35,1.02.23,1.9.59,2.62,1.08.72.49,1.27,1.11,1.65,1.88.38.77.57,1.68.57,2.75v.03c0,.82-.12,1.56-.35,2.2-.23.64-.57,1.2-1.02,1.67-.45.47-.99.86-1.64,1.17-.65.31-1.37.55-2.18.71l6.81,7.93h-4.69l-6.54-7.61h-5.64v7.61h-3.66V0ZM87.33,9.19c.77,0,1.44-.05,2-.16.56-.11,1.04-.29,1.42-.54.38-.25.67-.57.86-.96.19-.39.29-.87.29-1.45v-.03c0-.56-.1-1.04-.29-1.44-.19-.4-.48-.72-.86-.96s-.85-.42-1.42-.54c-.56-.11-1.23-.17-2-.17h-6.82v6.25h6.82Z"/>
        <path class="cls-1" d="M108.82,0h4.41l9.32,19.75h-4.04l-2.48-5.33h-10.3l-2.45,5.33h-3.77L108.82,0ZM114.66,11.43l-3.79-8.22h-.03l-3.78,8.22h7.6Z"/>
        <polygon class="cls-1" points="130.55 12.03 120.9 0 125.25 0 131.07 7.36 132.37 9.06 132.39 9.06 133.69 7.36 139.46 0 143.79 0 134.21 12.05 134.21 19.75 130.55 19.75 130.55 12.03"/>
        <path class="cls-1" d="M151.49,0h4.41l9.32,19.75h-4.04l-2.48-5.33h-10.3l-2.45,5.33h-3.77L151.49,0ZM157.33,11.43l-3.79-8.22h-.03l-3.78,8.22h7.6Z"/>
      </g>
      <g>
        <rect class="cls-1" x="61.22" y="42.62" width="9.87" height="1.97"/>
        <rect class="cls-1" x="61.22" y="38.67" width="9.87" height="1.97"/>
        <line class="cls-1" x1="81.53" y1="39.03" x2="77" y2="42.62"/>
        <path class="cls-1" d="M84.33,36.7h-2.8l-7.47,5.92v1.97h7.47v1.98h2.8v-1.98h2.08v-1.97h-2.08v-5.92ZM81.53,42.62h-4.52l4.52-3.59v3.59Z"/>
        <path class="cls-1" d="M98.74,39.48c0-.48-.12-.92-.37-1.3-.24-.38-.59-.69-1.05-.94-.45-.25-1-.44-1.65-.57-.64-.13-1.36-.2-2.16-.2s-1.53.08-2.18.23c-.65.15-1.21.37-1.68.66-.47.29-.85.65-1.15,1.06-.29.42-.48.9-.58,1.44h3.06c.05-.26.14-.49.27-.68.13-.19.3-.35.51-.47.21-.12.46-.21.76-.28.29-.06.61-.09.96-.09s.69.03.97.08c.28.05.53.13.73.23.2.1.36.22.47.37.11.15.17.32.17.52,0,.13-.02.24-.05.34-.03.1-.08.2-.15.29-.07.09-.16.17-.27.25-.11.07-.24.14-.39.21-.15.07-.33.13-.53.18-.2.06-.43.11-.67.17l-1.32.25c-.62.13-1.18.28-1.66.45-.48.17-.91.37-1.27.58-.36.22-.67.46-.92.73-.25.27-.45.57-.6.9-.15.33-.26.7-.33,1.1-.07.4-.1.84-.1,1.32v.28h11.18v-1.97h-7.89c.01-.13.05-.31.11-.43.06-.12.15-.22.26-.32.11-.1.24-.18.4-.27.15-.08.33-.16.53-.24.2-.08.42-.15.67-.21.24-.07.51-.13.8-.19l1.39-.26c.44-.1.84-.2,1.2-.32.35-.11.67-.24.94-.38.28-.14.51-.29.72-.46.2-.17.37-.36.49-.56.13-.2.22-.43.29-.67.07-.24.1-.52.1-.81"/>
        <path class="cls-1" d="M58.26,36.69h9.87v-4.94H0v19.75h68.13v-4.94h-9.87v-9.87ZM16.26,43.59c0,.53-.13,1-.4,1.39-.27.4-.64.73-1.14.99-.49.27-1.08.47-1.77.6-.69.14-1.47.2-2.33.2s-1.57-.08-2.25-.23c-.68-.15-1.27-.36-1.78-.64-.51-.28-.92-.62-1.24-1.02-.32-.4-.53-.85-.63-1.35h3.05c.05.15.12.29.23.42.1.13.22.24.35.35.13.1.29.19.46.28.17.08.36.14.56.19.2.05.42.08.66.11s.48.04.73.04c.26,0,.51-.01.74-.03.23-.02.45-.05.64-.08.2-.03.38-.08.54-.14.16-.06.3-.13.4-.21.11-.08.19-.17.25-.28.06-.11.09-.22.09-.34h0c0-.19-.05-.34-.14-.47-.09-.13-.24-.24-.45-.33-.21-.09-.46-.16-.78-.22-.31-.06-.68-.11-1.1-.15l-1.71-.18c-.71-.07-1.33-.18-1.88-.34-.54-.15-1-.35-1.37-.6-.37-.25-.65-.54-.84-.89-.19-.34-.28-.74-.28-1.2h0c0-.33.06-.63.18-.9.12-.27.3-.52.53-.75.23-.23.51-.42.84-.59.33-.17.69-.31,1.09-.43.4-.12.83-.2,1.3-.26.47-.06.95-.09,1.46-.09.74,0,1.43.07,2.06.2.63.13,1.19.33,1.67.58.48.26.88.58,1.19.96.32.38.54.82.66,1.3h-3.06c-.07-.21-.19-.38-.37-.52-.17-.14-.38-.27-.62-.37-.24-.1-.5-.18-.8-.23-.3-.05-.61-.07-.93-.07-.21,0-.42,0-.61.03-.2.02-.39.05-.57.08-.18.04-.35.08-.5.14-.15.05-.28.12-.38.19-.11.07-.19.16-.25.26-.06.1-.09.2-.09.32h0c0,.15.04.29.12.4.08.11.21.21.39.3.18.09.42.16.71.21.29.06.65.11,1.07.14l1.72.2c.72.08,1.37.18,1.94.33.57.14,1.05.33,1.44.57.39.24.68.53.88.87.2.34.3.75.3,1.22v.03ZM26.5,39.93c0,.22-.04.42-.11.57-.08.15-.19.28-.34.39-.15.11-.33.18-.56.23-.23.05-.49.07-.79.07h-3.08v-2.53h3.08c.3,0,.56.02.79.07.23.05.41.12.56.23.15.1.26.23.34.38.08.15.11.35.11.58M29.45,39.93c0,.6-.11,1.12-.32,1.53s-.52.75-.91,1c-.39.25-.86.43-1.4.54-.54.11-1.15.16-1.81.16h-3.35v3.41h-2.81v-9.87h6.15c.66,0,1.27.05,1.81.16.54.11,1.01.29,1.4.54.39.25.7.58.91.99s.32.93.32,1.54M46.24,41.63c0,.34.04.66.12.95.08.29.2.54.34.78.15.23.32.43.53.61.21.17.44.32.69.44.25.12.52.21.82.27.29.06.6.09.91.09.35,0,.69-.03,1.01-.1.33-.07.62-.16.89-.29.27-.13.5-.29.7-.5.2-.2.36-.44.48-.71h2.99c-.15.58-.41,1.09-.77,1.54-.36.44-.8.82-1.33,1.13-.53.31-1.13.55-1.81.71-.68.16-1.41.25-2.2.25-.93,0-1.78-.12-2.55-.36-.77-.24-1.44-.58-2-1.03-.56-.45-.99-.99-1.3-1.62-.31-.63-.46-1.35-.46-2.15s.15-1.52.46-2.15c.31-.63.74-1.17,1.3-1.62.56-.45,1.22-.79,2-1.03.77-.24,1.62-.36,2.55-.36.79,0,1.52.08,2.2.25.68.16,1.28.4,1.81.71.53.31.97.69,1.33,1.13.36.45.61.96.77,1.53h-2.99c-.12-.27-.28-.5-.48-.7s-.44-.36-.7-.5c-.27-.13-.56-.23-.89-.3-.33-.07-.67-.1-1.01-.1-.32,0-.62.03-.91.09-.29.06-.56.15-.81.27-.25.12-.48.26-.69.44-.21.17-.39.38-.53.61-.15.23-.26.49-.34.78-.08.29-.12.61-.12.94M35.95,38.74l-3.38,7.83h-2.94l4.5-9.87h3.63l4.5,9.87h-2.94l-3.38-7.83Z"/>
      </g>
    </g>
  </g>
</svg>